<?xml version="1.0" standalone="no"?><!DOCTYPE svg PUBLIC "-//W3C//DTD SVG 1.1//EN" "http://www.w3.org/Graphics/SVG/1.1/DTD/svg11.dtd"><svg t="1576809979194" class="icon" viewBox="0 0 1024 1024" version="1.1" xmlns="http://www.w3.org/2000/svg" p-id="24521" xmlns:xlink="http://www.w3.org/1999/xlink" width="163" height="163"><defs><style type="text/css"></style></defs><path d="M341.333333 221.866667H213.333333c-25.60000001 0-42.666667 17.06666699-42.666666 42.666666v128c0 25.60000001 17.06666699 42.666667 42.666666 42.66666699h128c25.60000001 0 42.666667-17.06666699 42.66666701-42.66666699v-128c0-25.60000001-17.06666699-42.666667-42.66666701-42.666666z m12.8 170.666666c0 8.533333-4.266667 12.8-12.8 12.8H213.333333c-8.533333 0-12.8-4.266667-12.8-12.8v-128c0-8.533333 4.266667-17.06666699 12.8-17.066666h128c8.533333 0 12.8 4.266667 12.8 12.8v132.266666zM810.666667 221.866667h-371.2c-25.60000001 0-42.666667 17.06666699-42.666667 42.666666v128c0 25.60000001 17.06666699 42.666667 42.666667 42.66666699H810.666667c25.60000001 0 42.666667-17.06666699 42.666666-42.66666699v-128c0-25.60000001-17.06666699-42.666667-42.666666-42.666666z m12.8 170.666666c0 8.533333-4.266667 12.8-12.8 12.8h-371.2c-8.533333 0-12.8-4.266667-12.8-12.8v-128c0-8.533333 4.266667-12.8 12.8-12.8H810.666667c8.533333 0 12.8 4.266667 12.8 12.8v128zM341.333333 473.6H213.333333c-25.60000001 0-42.666667 17.06666699-42.666666 42.666667v128c0 25.60000001 17.06666699 42.666667 42.666666 42.666666h128c25.60000001 0 42.666667-17.06666699 42.66666701-42.666666v-128c0-25.60000001-17.06666699-42.666667-42.66666701-42.666667z m12.8 170.666667c0 8.533333-4.266667 12.8-12.8 12.8H213.333333c-8.533333 0-12.8-4.266667-12.8-12.8v-128c0-8.533333 4.266667-12.8 12.8-12.8h128c8.533333 0 12.8 4.266667 12.8 12.8v128zM810.666667 473.6h-371.2c-25.60000001 0-42.666667 17.06666699-42.666667 42.666667v128c0 25.60000001 17.06666699 42.666667 42.666667 42.666666H810.666667c25.60000001 0 42.666667-17.06666699 42.666666-42.666666v-128c0-25.60000001-17.06666699-42.666667-42.666666-42.666667z m12.8 170.666667c0 8.533333-4.266667 12.8-12.8 12.8h-371.2c-8.533333 0-12.8-4.266667-12.8-12.8v-128c0-8.533333 4.266667-12.8 12.8-12.8H810.666667c8.533333 0 12.8 4.266667 12.8 12.8v128zM341.333333 725.333333H213.333333c-25.60000001 0-42.666667 17.06666699-42.666666 42.666667v128.00000001c0 25.60000001 17.06666699 42.666667 42.666666 42.66666699h128c25.60000001 0 42.666667-17.06666699 42.66666701-42.66666701v-127.99999999c0-25.60000001-17.06666699-42.666667-42.66666701-42.666667z m12.8 170.66666701c0 8.533333-4.266667 12.8-12.8 12.79999999H213.333333c-8.533333 0-12.8-4.266667-12.8-12.80000001v-127.99999999c0-8.533333 4.266667-12.8 12.8-12.8h128c8.533333 0 12.8 4.266667 12.8 12.8v128.00000001zM810.666667 725.333333h-371.2c-25.60000001 0-42.666667 17.06666699-42.666667 42.666667v128.00000001c0 25.60000001 17.06666699 42.666667 42.666667 42.66666699H810.666667c25.60000001 0 42.666667-17.06666699 42.666666-42.66666701v-127.99999999c0-25.60000001-17.06666699-42.666667-42.666666-42.666667z m12.8 170.66666701c0 8.533333-4.266667 12.8-12.8 12.79999999h-371.2c-8.533333 0-12.8-4.266667-12.8-12.80000001v-127.99999999c0-8.533333 4.266667-12.8 12.8-12.8H810.666667c8.533333 0 12.8 4.266667 12.8 12.8v128.00000001z" fill="#ffffff" p-id="24522"></path><path d="M896.00000001 72.533333h-157.86666701V42.666667c0-25.60000001-17.06666699-42.666667-42.666666-42.666667H328.533333c-25.60000001 0-42.666667 17.06666699-42.666666 42.666667v29.866666H127.99999999c-25.60000001 0-42.666667 17.06666699-42.66666699 42.666667V981.333333c0 25.60000001 17.06666699 42.666667 42.66666701 42.666667h768c25.60000001 0 42.666667-17.06666699 42.66666699-42.666667V115.2c0-25.60000001-17.06666699-42.666667-42.66666699-42.666667z m-584.53333301 25.6h396.8V127.99999999c0 8.533333-4.266667 12.8-12.8 12.80000001H328.533333c-8.533333 0-17.06666699-4.266667-17.066666-12.79999999v-29.86666701z m0-55.466666c0-8.533333 4.266667-12.8 12.8-12.8h371.2c8.533333 0 12.8 4.266667 12.8 12.8v29.866666H311.466667V42.666667z m597.333333 938.666666c0 8.533333-4.266667 12.8-12.79999999 12.8H127.99999999c-8.533333 0-12.8-4.266667-12.79999999-12.8V115.2c0-8.533333 4.266667-12.8 12.80000001-12.79999999h157.86666699V127.99999999c0 25.60000001 17.06666699 42.666667 42.666666 42.66666701h371.2c25.60000001 0 42.666667-17.06666699 42.66666701-42.66666699v-29.86666701H896.00000001c8.533333 0 12.8 4.266667 12.79999999 12.8V981.333333z" fill="#ffffff" p-id="24523"></path></svg>