<?xml version="1.0" standalone="no"?><!DOCTYPE svg PUBLIC "-//W3C//DTD SVG 1.1//EN" "http://www.w3.org/Graphics/SVG/1.1/DTD/svg11.dtd"><svg t="1576808266172" class="icon" viewBox="0 0 1024 1024" version="1.1" xmlns="http://www.w3.org/2000/svg" p-id="5425" xmlns:xlink="http://www.w3.org/1999/xlink" width="163" height="163"><defs><style type="text/css"></style></defs><path d="M488.755828 35.808589c-5.653988 6.282209-13.192638 17.590184-16.961963 25.128834-6.910429 13.192638-11.307975 14.44908-64.078528 14.44908-36.43681 0-55.283436 2.512883-52.770552 6.282209 1.884663 3.141104 27.013497 6.282209 55.911657 6.282208 49.629448 0 52.142331 0.628221 65.334969 18.218405 7.53865 10.679755 26.385276 27.641718 42.090798 38.321473l28.898159 20.103067 35.180368-26.385276c18.846626-15.077301 36.43681-32.039264 37.693252-38.321472 3.141104-10.679755 10.051534-11.936196 59.05276-11.936197 30.154601 0 57.168098-3.141104 59.052761-6.282208 2.512883-3.769325-17.590184-6.282209-55.911656-6.282209-39.577914 0-60.309202-2.512883-60.309203-6.910429 0-3.769325-5.653988-15.077301-13.192638-25.128835-13.820859-19.474847-40.834356-24.500613-54.655214-10.679754-4.397546 4.397546-7.53865 5.025767-7.538651 1.256441 0-11.307975-47.744785-9.423313-57.796319 1.884663z" p-id="5426" fill="#ffffff"></path><path d="M654.606135 148.888344l-1.256442 27.013496-81.668711 0.628221c-44.603681 0.628221-85.438037 1.256442-89.207362 1.884663-4.397546 0.628221-9.423313-8.166871-11.936197-18.218405l-3.769325-18.846626-2.512883 18.218405c-2.512883 19.474847-1.256442 18.846626-59.680982 24.500614C283.955828 196.004908 192.863804 266.365644 179.042945 358.08589c-3.141104 23.872393-1.884663 31.411043 9.423313 45.860122 18.846626 23.872393 43.347239 21.359509 56.539877-6.282208 5.025767-11.307975 15.077301-21.359509 21.98773-22.615951 11.307975-2.512883 11.307975-2.512883-1.256442-3.769325-16.961963-0.628221-16.961963-1.256442-5.653987-27.641718 16.333742-38.949693 74.130061-72.87362 143.234355-82.925154l29.526381-4.397546 2.512883 20.731289 2.512884 21.359509 0.628221-21.98773c1.256442-18.218405 3.769325-22.615951 13.820858-22.615951 10.679755 0 12.564417 4.397546 12.564418 27.013497 0 14.44908 3.141104 28.269939 6.282208 30.154601 3.769325 2.512883 6.282209-8.795092 6.282209-28.898159v-32.667485l19.474846 4.397546c10.679755 1.884663 49.001227 3.769325 84.809816 3.769325 64.078528 0 65.334969 0.628221 64.706749 13.820859-0.628221 10.679755-1.256442 11.936196-3.769325 3.141104-2.512883-9.423313-11.307975-10.679755-68.476074-10.679754H508.858896v33.923926c0 47.744785 8.795092 49.001227 84.181595 12.564417 50.257669-24.500613 60.309202-32.039264 60.309202-43.347239 0-14.44908 0.628221-14.44908 33.923927-6.910429 63.450307 15.077301 94.86135 43.97546 101.771779 94.233128l4.397546 28.269939-24.500614 2.512884-24.500613 2.512883 23.872392 0.628221c16.333742 1.256442 23.244172 4.397546 23.244172 10.679754 0 5.653988 6.910429 16.961963 15.705522 25.757056 13.820859 13.820859 15.705521 20.731288 15.705521 62.193865 0 29.52638 2.512883 47.116564 6.91043 47.116564 3.769325 0 6.282209-16.961963 5.025766-47.116564-1.256442-43.97546 0-48.373006 15.077301-62.193865 14.44908-13.192638 16.961963-20.731288 16.961963-49.629448 0-96.746012-65.334969-173.388957-160.82454-189.7227-44.603681-7.53865-45.860123-8.166871-48.373006-36.436809l-2.512883-26.385277-0.628221 26.385277z" p-id="5427" fill="#ffffff"></path><path d="M709.889571 293.379141c0 4.397546-11.307975 10.679755-25.757056 14.44908-32.667485 8.795092-72.245399 48.373006-80.41227 80.41227-9.423313 35.180368-3.141104 59.680982 32.039264 116.84908 33.923926 55.911656 37.693252 69.732515 16.333743 64.078527C643.92638 567.283436 634.503067 565.398773 630.733742 565.398773S618.797546 548.43681 612.515337 528.333742c-20.731288-69.104294-65.334969-103.656442-84.809816-65.96319-8.166871 14.44908-7.53865 18.846626 9.423313 48.373006 35.180368 62.822086 19.474847 149.516564-37.693251 205.428221-30.782822 30.154601-27.641718 32.039264-37.065031-23.244172-3.141104-18.846626-1.884663-20.103067 16.961963-22.615951l20.103068-2.512883-20.103068-0.628221c-19.474847-1.256442-20.103067-1.884663-16.333742-25.128834 5.025767-35.180368 18.846626-60.309202 42.719018-79.784049 25.128834-19.474847 29.52638-47.116564 10.051534-60.937424-6.282209-4.397546-13.192638-13.820859-15.0773-20.731288-2.512883-11.307975-3.141104-11.307975-3.769326 1.256442 0 8.166871-4.397546 14.44908-9.423312 14.44908-20.731288 0-77.271166 77.899387-87.950921 120.618404-3.141104 13.192638-8.166871 17.590184-18.846626 17.590184-35.808589 0-35.180368-35.808589 0.628221-74.130061 55.911656-59.052761 83.553374-109.93865 83.553375-153.91411 0-64.078528-80.41227-112.451534-140.721473-85.438037-34.552147 15.705521-20.731288 65.96319 16.333743 60.937423 15.705521-2.512883 17.590184-0.628221 18.218404 16.333743l1.256442 19.474846 3.769325-20.103067c3.769325-19.474847 4.397546-20.103067 18.846626-12.564417 8.166871 3.769325 15.705521 13.192638 16.961963 20.103067 3.141104 20.731288-19.474847 62.193865-52.770552 99.258896-72.245399 79.784049-78.527607 143.862577-18.218405 180.299386 11.307975 6.910429 26.385276 12.564417 33.923927 12.564417 7.53865 0 15.705521 3.141104 18.218404 6.91043 2.512883 5.025767 5.653988 4.397546 9.423313-1.256442 3.141104-5.653988 6.282209-2.512883 8.795092 10.679755 28.269939 129.413497 135.695706 255.057669 232.441718 270.76319 15.705521 2.512883 23.244172 0 33.295706-10.679755 11.936196-13.192638 17.590184-13.820859 107.425767-13.192638 62.193865 0.628221 94.86135-1.256442 94.861349-5.653987 0-3.769325-33.923926-6.282209-97.374233-6.282209-90.463804 0-97.374233-0.628221-103.656442-12.564417-3.769325-6.910429-10.679755-12.564417-15.705521-12.564417-7.53865 0-9.423313-11.936196-10.679755-58.42454l-1.256441-57.796319-1.884663 55.283435c-1.256442 30.154601-4.397546 54.655215-7.53865 54.655215-12.564417 0-84.181595-56.539877-104.284663-82.925153l-23.244172-29.526381 27.641718-27.013497c15.077301-15.077301 35.808589-37.693252 45.231902-50.885889 21.359509-27.641718 27.013497-28.89816 30.782822-5.653988l2.512884 16.961963 1.256441-16.961963c0.628221-14.44908 4.397546-18.218405 25.757055-23.872393 51.51411-13.820859 94.233129-69.104294 94.233129-122.503067 0-33.923926-9.423313-59.052761-40.206135-104.284663-30.782822-45.860123-30.782822-76.014724 1.256442-92.976687 13.192638-6.910429 13.820859-6.282209 13.820859 15.077301 0 11.936196 3.141104 21.98773 6.282209 21.98773 3.769325 0 6.282209-10.679755 6.282208-24.500614s3.769325-27.641718 9.423313-32.039263c12.564417-10.679755 11.936196-20.731288-3.141104-48.373007-6.910429-13.192638-12.564417-20.103067-12.564417-16.333742zM664.657669 581.104294c6.282209 5.653988-12.564417 33.295706-27.641718 41.462577-8.166871 4.397546-16.333742 6.282209-16.961963 5.025767-1.256442-1.256442-1.256442-15.077301 0.628221-30.154601 2.512883-26.385276 3.141104-27.013497 21.98773-23.244172 10.679755 1.884663 20.731288 5.025767 21.98773 6.910429zM199.146012 620.053988c15.077301 1.256442 38.949693 1.256442 54.026994 0 14.44908-1.256442 2.512883-2.512883-27.013497-2.512884s-41.462577 1.256442-27.013497 2.512884z" p-id="5428" fill="#ffffff"></path></svg>